<svg width="500" height="255" viewBox="0 0 500 255" fill="none" xmlns="http://www.w3.org/2000/svg">
<path d="M0 52.047V27.2109V2.37488H23.6977H47.3954V27.2109V52.047H23.6977H0Z" fill="white"/>
<path fill-rule="evenodd" clip-rule="evenodd" d="M392.232 3.22966C349.114 11.4897 331.244 22.4817 296.291 62.2339C265.795 96.9194 262.851 99.6494 255.923 99.6494L250.371 99.6514V51.5295V2.33349H157.116H63.8807V27.1902V52.047H74.1841H84.4874V152.426V252.805H115.397H146.308V152.426V52.047H167.945H189.582V152.482V252.79H219.949H250.371V201.581V151.389L258.913 151.391C267.162 151.391 268.052 152.084 284.76 171.57C294.276 182.67 304.643 195.009 307.796 198.993C323.76 219.16 341.395 234.654 357.526 242.682C397.616 262.636 449.43 256.849 476.802 229.358C499.535 206.525 506.389 171.775 493.664 143.86C484.457 123.662 465.266 109.524 433.569 99.5893C408.357 91.6873 401.089 88.5207 394.181 82.4276C382.872 72.456 386.394 61.3584 402.875 55.0356C416.2 49.9255 432.044 52.0118 450.238 61.2715C458.182 65.3156 466.593 68.6188 468.932 68.6126C474.372 68.6022 481.863 60.4084 490.371 45.1674L497.099 33.1115L491.193 26.8715C471.432 5.99266 429.765 -3.96245 392.232 3.22966ZM317.343 121.331C317.343 120.638 321.693 115.01 327.01 108.824C332.326 102.64 336.95 97.5797 337.284 97.5797C337.62 97.5797 339.343 101.073 341.113 105.341C348.426 122.97 370.024 138.416 403.941 150.273C435.708 161.379 443.044 166.547 443.044 177.825C443.044 202.671 401.666 211.61 375.887 192.333C369.973 187.91 317.343 124.082 317.343 121.331Z" fill="white"/>
</svg>
