<svg width="117" height="25" viewBox="0 0 117 25" fill="none" xmlns="http://www.w3.org/2000/svg">
<path d="M18.3917 4.63236C18.375 4.49763 18.258 4.44711 18.1744 4.43027C18.0908 4.41342 16.4021 4.39658 16.4021 4.39658C16.4021 4.39658 14.9809 3.01559 14.8471 2.86401C14.7134 2.72928 14.4459 2.76297 14.3288 2.79665C14.3288 2.79665 14.0613 2.88085 13.6099 3.01559C13.543 2.77981 13.426 2.47666 13.2755 2.17351C12.7739 1.19671 12.0382 0.691471 11.1354 0.691471C11.0852 0.691471 11.0016 0.691469 10.9514 0.708311C10.918 0.674628 10.9013 0.657788 10.8678 0.607264C10.4666 0.186228 9.98169 -0.0158698 9.3965 0.000971616C8.24283 0.0346545 7.10589 0.859885 6.15287 2.37561C5.48408 3.41978 4.9992 4.75025 4.86545 5.76074C3.54459 6.16493 2.60828 6.45124 2.59156 6.46808C1.92277 6.68702 1.90605 6.68702 1.82245 7.32699C1.73885 7.81539 0 21.4401 0 21.4401L14.6465 24L21 22.4169C21 22.4001 18.4084 4.75025 18.3917 4.63236ZM12.8742 3.25137C12.5398 3.35242 12.1553 3.4703 11.7373 3.60504C11.7205 3.01559 11.6537 2.2072 11.3861 1.49986C12.2723 1.66827 12.6903 2.66192 12.8742 3.25137ZM10.9849 3.85766C10.2158 4.09344 9.37978 4.34606 8.54379 4.61552C8.77787 3.70608 9.2293 2.79665 9.78105 2.2072C9.99841 1.98826 10.2659 1.73564 10.617 1.60091C10.918 2.25772 10.9849 3.21768 10.9849 3.85766ZM9.3965 0.792518C9.66401 0.792518 9.88137 0.843043 10.082 0.977775C9.76433 1.12935 9.46338 1.38197 9.17914 1.68511C8.44347 2.47666 7.89172 3.70608 7.65764 4.88498C6.95541 5.10392 6.28662 5.30602 5.65127 5.50812C6.08599 3.63872 7.6242 0.843042 9.3965 0.792518Z" fill="#95BF47"/>
<path d="M18.3316 4.71247C18.2526 4.695 16.6579 4.67752 16.6579 4.67752C16.6579 4.67752 15.3158 3.24464 15.1895 3.08737C15.1421 3.03495 15.0632 3 15 3V25L21 23.3574C21 23.3574 18.5526 5.06195 18.5368 4.92216C18.5053 4.78237 18.4105 4.72994 18.3316 4.71247Z" fill="#51B04C"/>
<path d="M11 8.23641L10.2887 11.1632C10.2887 11.1632 9.49654 10.7552 8.54273 10.8262C7.15243 10.9149 7.13626 11.8727 7.15242 12.1211C7.23326 13.4337 10.3695 13.7175 10.5473 16.7862C10.6767 19.1986 9.38337 20.8482 7.49192 20.9901C5.22864 21.132 4 19.6953 4 19.6953L4.46882 17.478C4.46882 17.478 5.71363 18.5068 6.71594 18.4536C7.36259 18.4004 7.60508 17.8328 7.57275 17.407C7.47575 15.7042 4.92148 15.7929 4.75982 13.008C4.63049 10.6488 6.03695 8.25415 9.15704 8.04129C10.3857 7.88165 11 8.23641 11 8.23641Z" fill="white"/>
<path d="M29.3442 13.9907C28.6001 13.5835 28.2111 13.2443 28.2111 12.7693C28.2111 12.1756 28.7354 11.7854 29.581 11.7854C30.545 11.7854 31.4075 12.1925 31.4075 12.1925L32.084 10.106C32.084 10.106 31.4583 9.61408 29.6148 9.61408C27.0442 9.61408 25.2684 11.0899 25.2684 13.1595C25.2684 14.3299 26.0971 15.229 27.1964 15.8736C28.0927 16.3825 28.4141 16.7388 28.4141 17.2816C28.4141 17.8414 27.9744 18.2824 27.1288 18.2824C25.8942 18.2824 24.7272 17.6378 24.7272 17.6378L24 19.7243C24 19.7243 25.0824 20.4538 26.892 20.4538C29.5303 20.4538 31.4244 19.1476 31.4244 16.8066C31.4583 15.5513 30.5112 14.6522 29.3442 13.9907ZM39.8636 9.59712C38.5614 9.59712 37.5466 10.2078 36.7518 11.1578L36.701 11.1408L37.8342 5.22053H34.9083L32.0502 20.2672H34.976L35.9569 15.1272C36.3459 13.1934 37.3437 11.989 38.2739 11.989C38.9334 11.989 39.1871 12.43 39.1871 13.0746C39.1871 13.4818 39.1364 13.9737 39.0518 14.3808L37.9356 20.2672H40.8614L42.0115 14.1773C42.1468 13.5327 42.2313 12.7693 42.2313 12.2604C42.2651 10.6149 41.3857 9.59712 39.8636 9.59712ZM48.8947 9.59712C45.3601 9.59712 43.0262 12.8032 43.0262 16.3656C43.0262 18.6556 44.4299 20.4707 47.0682 20.4707C50.5352 20.4707 52.8691 17.3494 52.8691 13.7023C52.8691 11.6158 51.6345 9.59712 48.8947 9.59712ZM47.4403 18.2316C46.4424 18.2316 46.0196 17.3664 46.0196 16.3147C46.0196 14.6353 46.8822 11.8702 48.4888 11.8702C49.5205 11.8702 49.8756 12.7693 49.8756 13.6344C49.8587 15.4495 48.9962 18.2316 47.4403 18.2316ZM60.3781 9.59712C58.3993 9.59712 57.2662 11.3444 57.2662 11.3444H57.2155L57.3846 9.76675H54.7971C54.6618 10.8355 54.4419 12.447 54.2051 13.6684L52.1757 24.4402H55.1015L55.9133 20.0806H55.964C55.964 20.0806 56.5559 20.4707 57.689 20.4707C61.1391 20.4707 63.3884 16.9254 63.3884 13.3461C63.4053 11.3783 62.5259 9.59712 60.3781 9.59712ZM57.5706 18.2655C56.8096 18.2655 56.353 17.8414 56.353 17.8414L56.8434 15.0933C57.1817 13.2612 58.1457 12.0399 59.1604 12.0399C60.0567 12.0399 60.3273 12.8711 60.3273 13.6684C60.3273 15.5513 59.2111 18.2655 57.5706 18.2655ZM67.5996 5.39016C66.6525 5.39016 65.9253 6.13656 65.9253 7.10348C65.9253 7.96862 66.4834 8.57931 67.3121 8.57931H67.3628C68.276 8.57931 69.0709 7.96862 69.0878 6.86599C69.054 6.00085 68.4959 5.39016 67.5996 5.39016ZM63.4899 20.2672H66.4157L68.4113 9.83461H65.4517L63.4899 20.2672ZM75.8696 9.81764H73.8402L73.9416 9.3257C74.1107 8.32485 74.7027 7.42579 75.6836 7.42579C76.2079 7.42579 76.6307 7.56149 76.6307 7.56149L77.2057 5.25445C77.2057 5.25445 76.6983 5 75.6159 5C74.5843 5 73.5357 5.30534 72.7409 5.98389C71.743 6.84903 71.2695 8.0704 71.0327 9.30874L70.9482 9.80068H69.5783L69.1555 12.0059H70.5254L68.9694 20.2502H71.8953L73.4512 12.0059H75.4806L75.8696 9.81764ZM82.9389 9.83461C82.9389 9.83461 81.0955 14.4826 80.2837 17.0102H80.2329C80.1822 16.1959 79.5057 9.83461 79.5057 9.83461H76.4277L78.1866 19.419C78.2373 19.6395 78.2035 19.7583 78.1358 19.9109C77.7976 20.5725 77.2226 21.2171 76.5461 21.6751C75.988 22.0823 75.3792 22.3367 74.8887 22.5064L75.7005 25C76.2924 24.8643 77.527 24.3893 78.5756 23.4054C79.9116 22.1501 81.1462 20.1993 82.4146 17.57L86 9.85157H82.9389V9.83461Z" fill="#17191A"/>
</svg>
