<svg width="45" height="44" viewBox="0 0 45 44" fill="none" xmlns="http://www.w3.org/2000/svg">
<rect width="45" height="43.5484" rx="2.90323" fill="#51B04C"/>
<path d="M22.9988 23.4509H20.0955V26.3541H22.9988V23.4509Z" fill="white"/>
<path d="M22.9988 26.3541H20.0955V29.2573H22.9988V26.3541Z" fill="white"/>
<path d="M20.0955 17.6444H22.9988V14.7412H20.0955V17.6444Z" fill="white"/>
<path d="M20.0955 17.6444V20.5477H22.9988V17.6444H20.0955Z" fill="white"/>
<path d="M20.0955 23.4494V20.5462H17.1923V23.4494H20.0955Z" fill="white"/>
<path d="M17.1923 23.4494V20.5462H14.2891V23.4494H17.1923Z" fill="white"/>
<path d="M25.902 20.5462V23.4494H28.8052V20.5462H25.902Z" fill="white"/>
<path d="M25.902 20.5462H22.9987V23.4494H25.902V20.5462Z" fill="white"/>
<path fill-rule="evenodd" clip-rule="evenodd" d="M22.9988 20.5477L22.9987 20.5462H20.0955V23.4494L20.0955 23.4509H22.9988V20.5477ZM22.9988 20.5477L22.9987 23.4494H20.0955L20.0955 20.5477H22.9988Z" fill="white"/>
</svg>
