<svg width="40" height="40" viewBox="0 0 40 40" fill="none" xmlns="http://www.w3.org/2000/svg">
<g clip-path="url(#clip0_12417_8324)">
<path d="M18.38 35.9515C27.3154 35.9515 34.5589 28.708 34.5589 19.7726C34.5589 10.8373 27.3154 3.59375 18.38 3.59375C9.4447 3.59375 2.20117 10.8373 2.20117 19.7726C2.20117 28.708 9.4447 35.9515 18.38 35.9515Z" fill="#0B3D91"/>
<path d="M17.4236 6.88619C17.5237 6.88619 17.6049 6.80499 17.6049 6.70481C17.6049 6.60464 17.5237 6.52344 17.4236 6.52344C17.3234 6.52344 17.2422 6.60464 17.2422 6.70481C17.2422 6.80499 17.3234 6.88619 17.4236 6.88619Z" fill="white"/>
<path d="M19.2868 7.12838C19.387 7.12838 19.4682 7.04717 19.4682 6.947C19.4682 6.84683 19.387 6.76562 19.2868 6.76562C19.1867 6.76562 19.1055 6.84683 19.1055 6.947C19.1055 7.04717 19.1867 7.12838 19.2868 7.12838Z" fill="white"/>
<path d="M21.7292 10.4213C21.8294 10.4213 21.9106 10.3401 21.9106 10.24C21.9106 10.1398 21.8294 10.0586 21.7292 10.0586C21.6291 10.0586 21.5479 10.1398 21.5479 10.24C21.5479 10.3401 21.6291 10.4213 21.7292 10.4213Z" fill="white"/>
<path d="M8.33274 27.3432C8.43292 27.3432 8.51412 27.262 8.51412 27.1618C8.51412 27.0617 8.43292 26.9805 8.33274 26.9805C8.23257 26.9805 8.15137 27.0617 8.15137 27.1618C8.15137 27.262 8.23257 27.3432 8.33274 27.3432Z" fill="white"/>
<path d="M8.80247 28.7924C8.90264 28.7924 8.98385 28.7112 8.98385 28.6111C8.98385 28.5109 8.90264 28.4297 8.80247 28.4297C8.7023 28.4297 8.62109 28.5109 8.62109 28.6111C8.62109 28.7112 8.7023 28.7924 8.80247 28.7924Z" fill="white"/>
<path d="M6.5538 27.5217C6.62882 27.5217 6.68963 27.4608 6.68963 27.3858C6.68963 27.3108 6.62882 27.25 6.5538 27.25C6.47878 27.25 6.41797 27.3108 6.41797 27.3858C6.41797 27.4608 6.47878 27.5217 6.5538 27.5217Z" fill="white"/>
<path d="M13.9292 30.3701C14.0044 30.3701 14.0654 30.3091 14.0654 30.2339C14.0654 30.1587 14.0044 30.0977 13.9292 30.0977C13.854 30.0977 13.793 30.1587 13.793 30.2339C13.793 30.3091 13.854 30.3701 13.9292 30.3701Z" fill="white"/>
<path d="M25.4991 27.9631C25.5741 27.9631 25.6349 27.9023 25.6349 27.8272C25.6349 27.7522 25.5741 27.6914 25.4991 27.6914C25.4241 27.6914 25.3633 27.7522 25.3633 27.8272C25.3633 27.9023 25.4241 27.9631 25.4991 27.9631Z" fill="white"/>
<path d="M28.8608 24.3115C28.9361 24.3115 28.9971 24.2505 28.9971 24.1753C28.9971 24.1001 28.9361 24.0391 28.8608 24.0391C28.7856 24.0391 28.7246 24.1001 28.7246 24.1753C28.7246 24.2505 28.7856 24.3115 28.8608 24.3115Z" fill="white"/>
<path d="M12.3829 11.4435C12.4579 11.4435 12.5187 11.3827 12.5187 11.3077C12.5187 11.2327 12.4579 11.1719 12.3829 11.1719C12.3079 11.1719 12.2471 11.2327 12.2471 11.3077C12.2471 11.3827 12.3079 11.4435 12.3829 11.4435Z" fill="white"/>
<path d="M16.0821 8.71698C16.1571 8.71698 16.218 8.65616 16.218 8.58114C16.218 8.50613 16.1571 8.44531 16.0821 8.44531C16.0071 8.44531 15.9463 8.50613 15.9463 8.58114C15.9463 8.65616 16.0071 8.71698 16.0821 8.71698Z" fill="white"/>
<path d="M15.6817 8.44744C15.7567 8.44744 15.8176 8.38663 15.8176 8.31161C15.8176 8.2366 15.7567 8.17578 15.6817 8.17578C15.6067 8.17578 15.5459 8.2366 15.5459 8.31161C15.5459 8.38663 15.6067 8.44744 15.6817 8.44744Z" fill="white"/>
<path d="M15.3175 8.17791C15.3925 8.17791 15.4533 8.1171 15.4533 8.04208C15.4533 7.96706 15.3925 7.90625 15.3175 7.90625C15.2425 7.90625 15.1816 7.96706 15.1816 8.04208C15.1816 8.1171 15.2425 8.17791 15.3175 8.17791Z" fill="white"/>
<path d="M12.962 12.1428C13.037 12.1428 13.0978 12.0819 13.0978 12.0069C13.0978 11.9319 13.037 11.8711 12.962 11.8711C12.887 11.8711 12.8262 11.9319 12.8262 12.0069C12.8262 12.0819 12.887 12.1428 12.962 12.1428Z" fill="white"/>
<path d="M18.4132 5.06463C18.4882 5.06463 18.549 5.00382 18.549 4.9288C18.549 4.85378 18.4882 4.79297 18.4132 4.79297C18.3382 4.79297 18.2773 4.85378 18.2773 4.9288C18.2773 5.00382 18.3382 5.06463 18.4132 5.06463Z" fill="white"/>
<path d="M19.3097 8.98651C19.3847 8.98651 19.4455 8.92569 19.4455 8.85068C19.4455 8.77566 19.3847 8.71484 19.3097 8.71484C19.2346 8.71484 19.1738 8.77566 19.1738 8.85068C19.1738 8.92569 19.2346 8.98651 19.3097 8.98651Z" fill="white"/>
<path d="M17.8975 8.22088C17.9726 8.22088 18.0334 8.16007 18.0334 8.08505C18.0334 8.01003 17.9726 7.94922 17.8975 7.94922C17.8225 7.94922 17.7617 8.01003 17.7617 8.08505C17.7617 8.16007 17.8225 8.22088 17.8975 8.22088Z" fill="white"/>
<path d="M15.4786 9.25604C15.5536 9.25604 15.6144 9.19522 15.6144 9.12021C15.6144 9.04519 15.5536 8.98438 15.4786 8.98438C15.4036 8.98438 15.3428 9.04519 15.3428 9.12021C15.3428 9.19522 15.4036 9.25604 15.4786 9.25604Z" fill="white"/>
<path d="M26.1436 31.5646C26.2187 31.5646 26.2795 31.5038 26.2795 31.4288C26.2795 31.3538 26.2187 31.293 26.1436 31.293C26.0686 31.293 26.0078 31.3538 26.0078 31.4288C26.0078 31.5038 26.0686 31.5646 26.1436 31.5646Z" fill="white"/>
<path d="M8.10108 28.2217C8.17632 28.2217 8.23731 28.1607 8.23731 28.0855C8.23731 28.0102 8.17632 27.9492 8.10108 27.9492C8.02584 27.9492 7.96484 28.0102 7.96484 28.0855C7.96484 28.1607 8.02584 28.2217 8.10108 28.2217Z" fill="white"/>
<path d="M17.5571 29.9795C17.6324 29.9795 17.6934 29.9185 17.6934 29.8433C17.6934 29.768 17.6324 29.707 17.5571 29.707C17.4819 29.707 17.4209 29.768 17.4209 29.8433C17.4209 29.9185 17.4819 29.9795 17.5571 29.9795Z" fill="white"/>
<path d="M10.9155 28.1123C10.9908 28.1123 11.0518 28.0513 11.0518 27.9761C11.0518 27.9008 10.9908 27.8398 10.9155 27.8398C10.8403 27.8398 10.7793 27.9008 10.7793 27.9761C10.7793 28.0513 10.8403 28.1123 10.9155 28.1123Z" fill="white"/>
<path d="M12.0933 30.0342C12.1685 30.0342 12.2295 29.9732 12.2295 29.898C12.2295 29.8227 12.1685 29.7617 12.0933 29.7617C12.018 29.7617 11.957 29.8227 11.957 29.898C11.957 29.9732 12.018 30.0342 12.0933 30.0342Z" fill="white"/>
<path d="M20.7491 28.8224C20.8241 28.8224 20.8849 28.7616 20.8849 28.6866C20.8849 28.6116 20.8241 28.5508 20.7491 28.5508C20.6741 28.5508 20.6133 28.6116 20.6133 28.6866C20.6133 28.7616 20.6741 28.8224 20.7491 28.8224Z" fill="white"/>
<path d="M25.5226 26.1389C25.5976 26.1389 25.6584 26.078 25.6584 26.003C25.6584 25.928 25.5976 25.8672 25.5226 25.8672C25.4475 25.8672 25.3867 25.928 25.3867 26.003C25.3867 26.078 25.4475 26.1389 25.5226 26.1389Z" fill="white"/>
<path d="M29.1407 27.7873C29.2157 27.7873 29.2765 27.7265 29.2765 27.6515C29.2765 27.5764 29.2157 27.5156 29.1407 27.5156C29.0657 27.5156 29.0049 27.5764 29.0049 27.6515C29.0049 27.7265 29.0657 27.7873 29.1407 27.7873Z" fill="white"/>
<path d="M30.3741 28.5685C30.4491 28.5685 30.5099 28.5077 30.5099 28.4327C30.5099 28.3577 30.4491 28.2969 30.3741 28.2969C30.2991 28.2969 30.2383 28.3577 30.2383 28.4327C30.2383 28.5077 30.2991 28.5685 30.3741 28.5685Z" fill="white"/>
<path d="M30.5763 26.4201C30.6513 26.4201 30.7121 26.3593 30.7121 26.2843C30.7121 26.2093 30.6513 26.1484 30.5763 26.1484C30.5012 26.1484 30.4404 26.2093 30.4404 26.2843C30.4404 26.3593 30.5012 26.4201 30.5763 26.4201Z" fill="white"/>
<path d="M12.5851 23.3693C12.6601 23.3693 12.7209 23.3085 12.7209 23.2335C12.7209 23.1585 12.6601 23.0977 12.5851 23.0977C12.51 23.0977 12.4492 23.1585 12.4492 23.2335C12.4492 23.3085 12.51 23.3693 12.5851 23.3693Z" fill="white"/>
<path d="M12.6355 26.5385C12.7357 26.5385 12.8169 26.4573 12.8169 26.3572C12.8169 26.257 12.7357 26.1758 12.6355 26.1758C12.5353 26.1758 12.4541 26.257 12.4541 26.3572C12.4541 26.4573 12.5353 26.5385 12.6355 26.5385Z" fill="white"/>
<path d="M13.7234 28.8354C13.8235 28.8354 13.9047 28.7542 13.9047 28.654C13.9047 28.5539 13.8235 28.4727 13.7234 28.4727C13.6232 28.4727 13.542 28.5539 13.542 28.654C13.542 28.7542 13.6232 28.8354 13.7234 28.8354Z" fill="white"/>
<path d="M26.7585 26.4448C26.8587 26.4448 26.9399 26.3636 26.9399 26.2634C26.9399 26.1632 26.8587 26.082 26.7585 26.082C26.6584 26.082 26.5771 26.1632 26.5771 26.2634C26.5771 26.3636 26.6584 26.4448 26.7585 26.4448Z" fill="white"/>
<path d="M31.4499 26.1753C31.5501 26.1753 31.6313 26.094 31.6313 25.9939C31.6313 25.8937 31.5501 25.8125 31.4499 25.8125C31.3498 25.8125 31.2686 25.8937 31.2686 25.9939C31.2686 26.094 31.3498 26.1753 31.4499 26.1753Z" fill="white"/>
<path d="M29.1286 25.1792C29.2288 25.1792 29.31 25.098 29.31 24.9978C29.31 24.8976 29.2288 24.8164 29.1286 24.8164C29.0285 24.8164 28.9473 24.8976 28.9473 24.9978C28.9473 25.098 29.0285 25.1792 29.1286 25.1792Z" fill="white"/>
<path d="M26.7585 25.2729C26.8587 25.2729 26.9399 25.1917 26.9399 25.0915C26.9399 24.9914 26.8587 24.9102 26.7585 24.9102C26.6584 24.9102 26.5771 24.9914 26.5771 25.0915C26.5771 25.1917 26.6584 25.2729 26.7585 25.2729Z" fill="white"/>
<path d="M21.8661 6.59024L22.3175 6.54712L21.8673 6.52172C21.8532 6.43466 21.7835 6.36655 21.6956 6.35526L21.6525 5.90625L21.6267 6.35889C21.5453 6.37703 21.4828 6.44514 21.4727 6.52979L21.0116 6.5717L21.476 6.59669C21.4929 6.67448 21.5558 6.73535 21.6348 6.74986L21.6767 7.21257L21.7009 6.75066C21.7415 6.74401 21.7791 6.72507 21.8087 6.69639C21.8382 6.66771 21.8583 6.63066 21.8661 6.59024ZM14.2579 11.6116L14.7094 11.5684L14.2592 11.5431C14.2454 11.456 14.1753 11.3879 14.0874 11.3766L14.0443 10.9276L14.0189 11.3802C13.9371 11.3984 13.8746 11.4665 13.8646 11.5511L13.4035 11.593L13.8678 11.618C13.8847 11.6958 13.9476 11.7567 14.0266 11.7712L14.0685 12.2339L14.0935 11.772C14.1341 11.7653 14.1716 11.7463 14.2011 11.7176C14.2305 11.6889 14.2501 11.6519 14.2579 11.6116ZM31.1204 24.8876L31.5718 24.8445L31.1216 24.8191C31.1079 24.732 31.0378 24.6639 30.9499 24.6526L30.9068 24.2036L30.8814 24.6562C30.8 24.6744 30.7375 24.7425 30.7274 24.8271L30.2663 24.8691L30.7306 24.894C30.7476 24.9718 30.8104 25.0327 30.8894 25.0472L30.9314 25.5099L30.9564 25.048C30.9968 25.0412 31.0343 25.0222 31.0637 24.9935C31.0931 24.9649 31.1126 24.9279 31.1204 24.8876ZM12.7344 31.8291L13.1858 31.786L12.7356 31.7606C12.7215 31.6735 12.6517 31.6054 12.5639 31.5941L12.5207 31.1455L12.4954 31.5978C12.4135 31.6159 12.3511 31.684 12.341 31.7687L11.8799 31.8106L12.3442 31.8356C12.3611 31.9133 12.424 31.9746 12.503 31.9887L12.5449 32.4514L12.5699 31.9895C12.6105 31.9828 12.648 31.9638 12.6775 31.9352C12.707 31.9065 12.7265 31.8695 12.7344 31.8291ZM29.6871 28.4434L30.1385 28.4003L29.6883 28.3749C29.6746 28.2878 29.6045 28.2197 29.5166 28.2084L29.4735 27.7594L29.4481 28.2116C29.3667 28.2298 29.3042 28.2979 29.2941 28.3825L28.833 28.4245L29.2974 28.4494C29.3143 28.5272 29.3772 28.5881 29.4562 28.6026L29.4981 29.0653L29.5231 28.6034C29.6057 28.5901 29.6722 28.5256 29.6875 28.4434H29.6871Z" fill="white"/>
<path d="M22.2167 15.8984C20.3356 16.6295 18.5005 17.2821 16.9527 17.7666C13.8069 18.7516 5.19949 21.4183 0 24.7798L0.435306 24.9491C3.60336 23.1595 5.66301 22.5972 7.64204 21.9745C9.79438 21.2974 16.7524 19.669 19.9031 18.7823C20.9672 18.4828 22.2143 18.0906 23.5307 17.6134C23.2236 17.1849 22.8995 16.7549 22.5585 16.3264L22.2127 15.8984H22.2167ZM24.515 19.0664C24.0595 19.374 23.6778 19.6194 23.4106 19.7742C21.8628 20.669 14.3175 25.8201 12.6005 27.0051C10.8835 28.1901 6.11927 32.6883 4.71662 33.9942L4.66825 34.5262C9.1906 30.4634 10.6094 29.4614 12.407 28.0934C14.6319 26.4005 19.2349 23.2687 20.7987 22.2651L24.8535 19.6162L24.7943 19.5166L24.5154 19.0664H24.515ZM31.5847 11.5997C29.3815 12.8911 25.9096 14.4494 22.54 15.7722L22.7806 16.0705C23.1502 16.5359 23.5056 17.0124 23.8463 17.4993C26.4944 16.5239 29.4005 15.2148 31.706 13.6299C30.6076 14.6706 26.9765 17.3845 24.7625 18.8971L25.0938 19.4534C28.4476 17.2103 30.7048 15.5578 32.024 14.4534C33.8378 12.9298 37.9732 9.51993 39.5451 4.94922C36.7882 8.45585 33.5274 10.4631 31.5887 11.5997H31.5847Z" fill="#FC3D21"/>
<path d="M16.2997 23.7773L15.0793 22.2606L13.7056 20.3783L13.2953 20.4811C13.8165 21.2935 14.3784 22.079 14.9789 22.8346L16.043 24.1357L16.2824 24.4879L16.6774 24.2195L16.2985 23.7778L16.2997 23.7773ZM18.9035 26.1409C18.6105 25.8636 17.8959 25.4005 17.1603 24.706L16.6669 25.0462C17.1446 25.7193 17.7955 26.5456 18.3046 26.7874C19.072 27.151 19.2788 26.4972 18.9035 26.1417V26.1409ZM22.7822 16.0644C18.5532 10.7416 13.3908 7.81775 11.1599 9.58719C9.42997 10.9576 10.1402 14.9785 12.5247 19.1982L12.8874 19.0773C10.4811 14.966 9.82214 11.145 11.4537 9.84877C13.5041 8.2196 18.4549 11.1547 22.5613 16.3235C23.4077 17.3933 24.1586 18.467 24.7914 19.5138C27.2146 23.5242 27.9583 27.151 26.284 28.631C25.7721 29.084 24.2062 29.2618 22.1554 28.3388C22.1272 28.3791 22.1727 28.4718 22.2086 28.5C23.9789 29.2118 25.6749 29.4835 26.5306 28.8031C28.5879 27.1683 27.0075 21.3949 22.7822 16.0724V16.0644ZM4.64563 16.6996H7.3542L9.62747 20.5569V17.546C9.62747 17.2075 9.1982 16.7661 9.04706 16.6996H10.9213C10.8064 16.7298 10.4376 17.1772 10.4376 17.546V21.9716C10.4376 22.2437 10.8306 22.6185 11.018 22.7636H8.40619L6.09665 18.8842V21.9313C6.09665 22.2336 6.3929 22.5238 6.70124 22.7717H4.70609C4.99025 22.6508 5.26232 22.2699 5.2865 21.9676C5.31068 21.6653 5.2865 17.7657 5.2865 17.5964C5.2865 17.2276 4.92979 16.9253 4.6416 16.6956L4.64563 16.6996Z" fill="white"/>
<path d="M29.4221 22.7663H33.0255C32.826 22.7179 32.6023 22.4821 32.4813 22.1677L30.4539 16.7022H29.0835L27.8341 17.5878V17.6212C27.7744 17.984 26.7023 21.8671 26.637 22.0549C26.5463 22.3209 26.0807 22.6172 25.8933 22.7743H27.8341C27.6406 22.5567 27.4834 22.3451 27.5197 22.1032C27.5559 21.8614 27.6648 21.3777 27.6648 21.3777H29.672C29.7627 21.6196 29.8304 21.8372 29.8655 22.0428C29.9078 22.2907 29.6539 22.5688 29.4302 22.7623L29.4221 22.7663ZM27.8341 20.6079L28.5112 18.3911L29.406 20.6079H27.8341ZM27.5289 16.9231L27.828 16.7022H27.3101C27.3625 16.7506 27.4491 16.8232 27.537 16.9231H27.5289ZM13.7511 22.1113L13.8962 21.3858H15.9034C15.9941 21.6276 16.0619 21.8453 16.0969 22.0509C16.1392 22.2987 15.8853 22.5768 15.6616 22.7703H18.8337L19.0352 22.6373C18.9123 22.5285 18.799 22.3652 18.7249 22.1714L16.6934 16.7059H13.5496C13.7007 16.8449 14.136 17.2198 14.0736 17.6248C14.0143 17.9876 12.9418 21.8707 12.8765 22.0585C12.7858 22.3245 12.3202 22.6208 12.1328 22.778H14.0736C13.8801 22.5603 13.7229 22.3487 13.7592 22.1069L13.7511 22.1113ZM14.7588 18.4032L15.6535 20.62H14.0816L14.7588 18.4032ZM24.7095 19.7123L22.8353 20.9477C23.1303 21.0908 23.3653 21.2701 23.3875 21.5027C23.4294 21.9388 22.5531 22.1496 21.7611 22.0589C21.6027 22.0408 21.4467 21.9993 21.2988 21.9436L20.7998 22.2645L20.1831 22.6663V23.2923C20.3444 22.9839 20.6842 22.7078 20.951 22.6937C21.0659 22.6877 21.4649 23.0565 23.1094 22.9658C23.9074 22.9255 25.4491 22.071 25.425 21.0916C25.4104 20.5128 25.1082 20.0613 24.7087 19.7123H24.7095ZM20.184 21.2246V21.8622L20.6136 21.5801C20.3919 21.4261 20.2355 21.2818 20.184 21.2282V21.2246ZM24.1477 19.3121C23.9991 19.2249 23.8466 19.1447 23.6906 19.0718C22.9167 18.7091 22.1066 18.6426 21.9373 18.1529C21.818 17.8074 22.1549 17.4878 22.9772 17.4999C23.7994 17.512 24.5612 18.0017 24.7668 18.177V16.6172C24.7063 16.6776 24.4411 16.982 24.2025 16.9316C23.4903 16.7852 22.7651 16.7122 22.038 16.7139C20.9981 16.72 20.1033 17.52 20.0731 18.5398C20.0308 19.9606 21.1674 20.3475 21.8083 20.5712L22.0316 20.645L23.4125 19.7736L24.1473 19.3125L24.1477 19.3121Z" fill="white"/>
</g>
<defs>
<clipPath id="clip0_12417_8324">
<rect width="39.5411" height="39.5411" fill="white"/>
</clipPath>
</defs>
</svg>
